<svg width="28" height="28" viewBox="0 0 28 28" fill="none" xmlns="http://www.w3.org/2000/svg">
<g clip-path="url(#clip0_2_41)">
<path d="M20.1836 5.23744L14.5223 0.44266C14.2195 0.186161 13.7768 0.182155 13.4693 0.433132L11.8389 1.76409C11.6433 1.92372 11.5318 2.16422 11.5363 2.41663L11.9517 25.8826C11.9562 26.1369 12.0781 26.375 12.2818 26.5274L13.2906 27.2821C13.7533 27.6283 14.4193 27.4027 14.5764 26.8467L20.4439 6.08987C20.5317 5.77929 20.4299 5.44604 20.1836 5.23744Z" fill="white"/>
<path d="M0.614519 13.4408L6.65416 7.71798C7.14616 7.25178 7.95924 7.54635 8.03847 8.2195L9.60525 21.5307C9.69649 22.306 8.75841 22.7613 8.20572 22.21L0.599319 14.6216C0.27091 14.294 0.277786 13.7598 0.614519 13.4408Z" fill="white"/>
<path d="M18.5349 21.2468L22.4763 10.2616C22.6785 9.69802 23.3954 9.53175 23.825 9.9487L27.3998 13.4177C27.7297 13.7378 27.7336 14.266 27.4086 14.591L19.8923 22.1073C19.2706 22.729 18.2379 22.0743 18.5349 21.2468Z" fill="white"/>
</g>
<defs>
<clipPath id="clip0_2_41">
<rect width="28" height="28" fill="white"/>
</clipPath>
</defs>
</svg>
